<svg xmlns="http://www.w3.org/2000/svg" width="191" height="56" viewBox="0 0 191 56">
  <g id="app-store" transform="translate(0.5 0.5)">
    <rect id="Rectangle_1167" data-name="Rectangle 1167" width="190" height="55" rx="4" transform="translate(0 0)" fill="#2b2b2b" stroke="#a6a6a6" stroke-width="1"/>
    <path id="Union_306" data-name="Union 306" d="M3.783,31.342C.709,26.849-1.683,18.7,1.52,13.152A8.819,8.819,0,0,1,8.935,8.625c2.351-.049,4.566,1.6,5.984,1.6s4.11-1.965,6.9-1.664a8.387,8.387,0,0,1,6.618,3.571,8.211,8.211,0,0,0-3.912,6.878A7.912,7.912,0,0,0,29.361,26.3a18.215,18.215,0,0,1-2.522,5.125c-1.479,2.216-3.107,4.361-5.5,4.42s-3.176-1.407-5.949-1.407S11.811,35.82,9.46,35.9c-.041,0-.082,0-.123,0C7.053,35.9,5.3,33.491,3.783,31.342ZM14.858,8.321a7.637,7.637,0,0,1,1.895-5.569A8.2,8.2,0,0,1,22.062,0a8.015,8.015,0,0,1-1.881,5.784h.034A6.8,6.8,0,0,1,14.9,8.321Z" transform="translate(17.498 7.668)" fill="#fff"/>
    <path id="Path_1001" data-name="Path 1001" d="M109.742,65.411h-3.2L104.787,59.9H98.659l-1.681,5.515H93.87L99.919,46.65h3.694Zm-5.48-7.826-1.585-4.9c-.175-.5-.49-1.672-.954-3.5h-.053c-.184.8-.482,1.97-.875,3.5l-1.558,4.9Z" transform="translate(-34.124 -22.231)" fill="#fff"/>
    <path id="Path_1002" data-name="Path 1002" d="M127.87,59.182a7.713,7.713,0,0,1-1.865,5.463,5.5,5.5,0,0,1-4.15,1.751,4.15,4.15,0,0,1-3.843-1.917h-.053V71.6h-2.977V57.037c0-1.444,0-2.924-.114-4.456H117.5l.175,2.145h.053a5.358,5.358,0,0,1,8.562-.525,7.45,7.45,0,0,1,1.6,4.981m-3.064.114a5.541,5.541,0,0,0-.875-3.257,3.187,3.187,0,0,0-4.631-.6,3.423,3.423,0,0,0-1.182,1.943,3.721,3.721,0,0,0-.14.875v2.259a3.633,3.633,0,0,0,.875,2.5,3.012,3.012,0,0,0,2.355,1.016,3.073,3.073,0,0,0,2.626-1.313,5.752,5.752,0,0,0,.945-3.449" transform="translate(-36.644 -23.034)" fill="#fff"/>
    <path id="Path_1003" data-name="Path 1003" d="M145.645,59.182a7.678,7.678,0,0,1-1.873,5.463,5.463,5.463,0,0,1-4.141,1.751,4.15,4.15,0,0,1-3.843-1.917h-.052V71.6h-3.012V57.037c0-1.444,0-2.924-.114-4.456h2.626l.175,2.145h.052a5.358,5.358,0,0,1,8.562-.525,7.45,7.45,0,0,1,1.6,4.981m-3.064.114a5.542,5.542,0,0,0-.875-3.257,3.187,3.187,0,0,0-4.631-.6,3.423,3.423,0,0,0-1.182,1.943,3.724,3.724,0,0,0-.14.875v2.259a3.633,3.633,0,0,0,.875,2.5,3.011,3.011,0,0,0,2.355,1.016,3.073,3.073,0,0,0,2.626-1.313,5.752,5.752,0,0,0,.989-3.414" transform="translate(-38.767 -23.034)" fill="#fff"/>
    <path id="Path_1004" data-name="Path 1004" d="M165.722,60.108A5,5,0,0,1,164.05,64a7.354,7.354,0,0,1-5.113,1.646,9,9,0,0,1-4.867-1.173l.7-2.5a8.264,8.264,0,0,0,4.377,1.2,4.062,4.062,0,0,0,2.626-.77,2.5,2.5,0,0,0,.945-2.049,2.626,2.626,0,0,0-.779-1.926,7.3,7.3,0,0,0-2.626-1.444q-4.92-1.847-4.929-5.384a4.771,4.771,0,0,1,1.751-3.791,6.82,6.82,0,0,1,4.6-1.479A9.21,9.21,0,0,1,165,47.2l-.753,2.451a7.45,7.45,0,0,0-3.589-.875,3.6,3.6,0,0,0-2.477.779,2.241,2.241,0,0,0-.753,1.733,2.3,2.3,0,0,0,.876,1.838,9.63,9.63,0,0,0,2.714,1.436,9.148,9.148,0,0,1,3.563,2.285,4.788,4.788,0,0,1,1.147,3.257" transform="translate(-41.341 -22.191)" fill="#fff"/>
    <path id="Path_1005" data-name="Path 1005" d="M177.558,54.4h-3.265v6.575c0,1.663.578,2.5,1.751,2.5a5.165,5.165,0,0,0,1.331-.14l.088,2.285a6.9,6.9,0,0,1-2.337.333,3.58,3.58,0,0,1-2.784-1.086,5.349,5.349,0,0,1-1.051-3.642V54.4h-1.97V52.143h1.97V49.665l2.959-.875v3.37h3.309Z" transform="translate(-43.181 -22.504)" fill="#fff"/>
    <path id="Path_1006" data-name="Path 1006" d="M193.93,59.242a7.459,7.459,0,0,1-1.751,5.121,6.373,6.373,0,0,1-4.955,2.057,6.041,6.041,0,0,1-4.754-1.979,7.17,7.17,0,0,1-1.751-4.981,7.327,7.327,0,0,1,1.821-5.148,6.312,6.312,0,0,1,4.92-2,6.207,6.207,0,0,1,4.789,1.97A7.126,7.126,0,0,1,194,59.242m-3.117.1a6.067,6.067,0,0,0-.814-3.213,2.959,2.959,0,0,0-2.7-1.62,3.02,3.02,0,0,0-2.758,1.62,6.251,6.251,0,0,0-.805,3.265,6.128,6.128,0,0,0,.805,3.213,3.038,3.038,0,0,0,2.731,1.62,3,3,0,0,0,2.626-1.681,6.076,6.076,0,0,0,.875-3.239" transform="translate(-44.525 -22.949)" fill="#fff"/>
    <path id="Path_1007" data-name="Path 1007" d="M205.964,55.224a5.434,5.434,0,0,0-.945-.079,2.863,2.863,0,0,0-2.451,1.2,4.518,4.518,0,0,0-.753,2.626v7.1h-3.029V56.8c0-1.558,0-2.976-.105-4.263h2.626l.105,2.626h.079A4.762,4.762,0,0,1,203,53.018a3.677,3.677,0,0,1,2.18-.718,4.8,4.8,0,0,1,.744.053Z" transform="translate(-46.512 -22.947)" fill="#fff"/>
    <path id="Path_1008" data-name="Path 1008" d="M220.619,58.708a7.532,7.532,0,0,1-.105,1.366H211.5a3.94,3.94,0,0,0,1.3,3.064,4.465,4.465,0,0,0,2.95.945,9.989,9.989,0,0,0,3.651-.639l.473,2.084a11.284,11.284,0,0,1-4.544.875,6.557,6.557,0,0,1-4.938-1.856,6.82,6.82,0,0,1-1.795-4.973,7.73,7.73,0,0,1,1.672-5.1A5.752,5.752,0,0,1,215,52.308a5.043,5.043,0,0,1,4.456,2.136,7.328,7.328,0,0,1,1.191,4.263m-2.863-.779a4.062,4.062,0,0,0-.587-2.311,2.626,2.626,0,0,0-2.4-1.252,2.863,2.863,0,0,0-2.39,1.226,4.447,4.447,0,0,0-.875,2.337Z" transform="translate(-47.778 -22.948)" fill="#fff"/>
    <g id="_Group_" data-name="&lt;Group&gt;" transform="translate(61.791 8.545)">
      <g id="Group_497" data-name="Group 497">
        <path id="Path_1031" data-name="Path 1031" d="M38.892,8.734a3.945,3.945,0,0,1,4.2,4.431c0,2.849-1.54,4.486-4.2,4.486H35.671V8.734ZM37.056,16.39h1.681a2.8,2.8,0,0,0,2.941-3.207,2.811,2.811,0,0,0-2.941-3.189H37.056Z" transform="translate(-35.671 -8.295)" fill="#fff"/>
        <path id="Path_1032" data-name="Path 1032" d="M41.686,13.6a3.188,3.188,0,1,1,6.347,0,3.188,3.188,0,1,1-6.347,0Zm4.981,0c0-1.459-.655-2.312-1.805-2.312s-1.8.853-1.8,2.312.649,2.317,1.8,2.317S46.666,15.064,46.666,13.6Z" transform="translate(-32.705 -7.611)" fill="#fff"/>
        <path id="Path_1033" data-name="Path 1033" d="M54.047,16.924H52.67l-1.391-4.956h-.105l-1.385,4.956H48.424l-1.855-6.729h1.347l1.205,5.135h.1L50.6,10.195h1.274l1.383,5.135h.105l1.2-5.135h1.328Z" transform="translate(-30.283 -7.568)" fill="#fff"/>
        <path id="Path_1034" data-name="Path 1034" d="M53.854,10.24h1.278v1.069h.1a2.014,2.014,0,0,1,2.008-1.2,2.189,2.189,0,0,1,2.329,2.5v4.356H58.24V12.946c0-1.081-.47-1.619-1.452-1.619a1.544,1.544,0,0,0-1.607,1.705v3.937H53.854Z" transform="translate(-26.682 -7.613)" fill="#fff"/>
        <path id="Path_1035" data-name="Path 1035" d="M59.094,8.437h1.328v9.356H59.094Z" transform="translate(-24.091 -8.437)" fill="#fff"/>
        <path id="Path_1036" data-name="Path 1036" d="M61.223,13.6a3.188,3.188,0,1,1,6.347,0,3.189,3.189,0,1,1-6.347,0Zm4.981,0c0-1.459-.655-2.312-1.805-2.312s-1.8.853-1.8,2.312.649,2.317,1.8,2.317S66.2,15.064,66.2,13.6Z" transform="translate(-23.046 -7.611)" fill="#fff"/>
        <path id="Path_1037" data-name="Path 1037" d="M66.4,15.064c0-1.211.9-1.91,2.5-2.009l1.823-.105v-.581c0-.711-.47-1.112-1.378-1.112-.741,0-1.255.272-1.4.748H66.661c.136-1.156,1.223-1.9,2.749-1.9,1.687,0,2.639.84,2.639,2.261v4.6H70.77v-.946h-.105a2.264,2.264,0,0,1-2.021,1.057A2.033,2.033,0,0,1,66.4,15.064Zm4.326-.575v-.563l-1.643.105c-.927.062-1.347.377-1.347.97s.525.958,1.248.958a1.586,1.586,0,0,0,1.742-1.471Z" transform="translate(-20.478 -7.611)" fill="#fff"/>
        <path id="Path_1038" data-name="Path 1038" d="M71.348,14.425c0-2.126,1.093-3.473,2.793-3.473A2.218,2.218,0,0,1,76.2,12.133h.1v-3.7h1.328v9.356H76.36V16.73h-.105A2.335,2.335,0,0,1,74.141,17.9C72.43,17.9,71.348,16.557,71.348,14.425Zm1.372,0c0,1.427.673,2.286,1.8,2.286s1.811-.871,1.811-2.28-.7-2.286-1.811-2.286-1.8.865-1.8,2.28Z" transform="translate(-18.033 -8.437)" fill="#fff"/>
        <path id="Path_1039" data-name="Path 1039" d="M79.235,13.6a3.188,3.188,0,1,1,6.347,0,3.188,3.188,0,1,1-6.347,0Zm4.981,0c0-1.459-.655-2.312-1.805-2.312s-1.8.853-1.8,2.312.649,2.317,1.8,2.317S84.216,15.064,84.216,13.6Z" transform="translate(-14.141 -7.611)" fill="#fff"/>
        <path id="Path_1040" data-name="Path 1040" d="M84.669,10.24h1.278v1.069h.1a2.014,2.014,0,0,1,2.008-1.2,2.189,2.189,0,0,1,2.329,2.5v4.356H89.056V12.946c0-1.081-.47-1.619-1.452-1.619A1.544,1.544,0,0,0,86,13.033v3.937H84.669Z" transform="translate(-11.447 -7.613)" fill="#fff"/>
        <path id="Path_1041" data-name="Path 1041" d="M94.308,9.074V10.78h1.458V11.9H94.308v3.46c0,.7.29,1.014.952,1.014a4.433,4.433,0,0,0,.506-.031v1.106a4.357,4.357,0,0,1-.722.068c-1.477,0-2.065-.52-2.065-1.817V11.9H91.911V10.78h1.068V9.074Z" transform="translate(-7.867 -8.122)" fill="#fff"/>
        <path id="Path_1042" data-name="Path 1042" d="M95.7,8.437h1.316v3.708h.105a2.071,2.071,0,0,1,2.052-1.205,2.217,2.217,0,0,1,2.317,2.509v4.345h-1.329V13.776c0-1.075-.5-1.619-1.439-1.619a1.572,1.572,0,0,0-1.694,1.706v3.93H95.7Z" transform="translate(-5.991 -8.437)" fill="#fff"/>
        <path id="Path_1043" data-name="Path 1043" d="M106.763,15.15a2.732,2.732,0,0,1-2.916,1.947,3.056,3.056,0,0,1-3.108-3.473,3.1,3.1,0,0,1,3.1-3.516c1.872,0,3,1.279,3,3.392v.463h-4.752v.074a1.779,1.779,0,0,0,1.792,1.928,1.613,1.613,0,0,0,1.6-.816Zm-4.671-2.169h3.4a1.624,1.624,0,0,0-1.656-1.743,1.721,1.721,0,0,0-1.742,1.743Z" transform="translate(-3.516 -7.611)" fill="#fff"/>
      </g>
    </g>
  </g>
</svg>
