<svg xmlns="http://www.w3.org/2000/svg" xmlns:xlink="http://www.w3.org/1999/xlink" width="191" height="56" viewBox="0 0 191 56">
  <defs>
    <linearGradient id="linear-gradient" x1="0.807" y1="0.501" x2="-1.573" y2="0.501" gradientUnits="objectBoundingBox">
      <stop offset="0" stop-color="#fee000"/>
      <stop offset="0.42" stop-color="#fbbc0e"/>
      <stop offset="0.78" stop-color="#faa418"/>
      <stop offset="1" stop-color="#f99b1c"/>
    </linearGradient>
    <linearGradient id="linear-gradient-2" x1="0.861" y1="0.179" x2="-0.503" y2="1.951" gradientUnits="objectBoundingBox">
      <stop offset="0" stop-color="#ef4547"/>
      <stop offset="1" stop-color="#c6186d"/>
    </linearGradient>
    <linearGradient id="linear-gradient-3" x1="-0.507" y1="-0.957" x2="0.606" y2="0.49" gradientUnits="objectBoundingBox">
      <stop offset="0" stop-color="#279e6f"/>
      <stop offset="0.04" stop-color="#2ba06f"/>
      <stop offset="0.46" stop-color="#53b26c"/>
      <stop offset="0.8" stop-color="#6bbd6a"/>
      <stop offset="1" stop-color="#74c169"/>
    </linearGradient>
  </defs>
  <g id="google-play" transform="translate(0.5 0.271)">
    <rect id="Rectangle_1168" data-name="Rectangle 1168" width="190" height="55" rx="4" transform="translate(0 0.229)" fill="#2b2b2b" stroke="#a6a6a6" stroke-width="1"/>
    <path id="Path_1009" data-name="Path 1009" d="M130.327,128.779a6.073,6.073,0,1,0,6.091,6.073,5.984,5.984,0,0,0-6.091-6.073Zm0,9.767a3.694,3.694,0,1,1,3.427-3.676,3.552,3.552,0,0,1-3.427,3.658Zm-13.319-9.767a6.073,6.073,0,1,0,6.091,6.073,5.984,5.984,0,0,0-6.073-6.073Zm0,9.767a3.694,3.694,0,1,1,3.427-3.676,3.552,3.552,0,0,1-3.41,3.658Zm-15.822-7.885v2.575h6.162a5.381,5.381,0,0,1-1.4,3.241,6.313,6.313,0,0,1-4.759,1.891,6.863,6.863,0,0,1,0-13.718,6.553,6.553,0,0,1,4.644,1.847l1.776-1.776a8.986,8.986,0,0,0-6.464-2.6,9.438,9.438,0,1,0,0,18.868,8.639,8.639,0,0,0,6.579-2.664,8.506,8.506,0,0,0,2.229-6.029,8.7,8.7,0,0,0-.133-1.607Zm64.719,2.007a5.647,5.647,0,0,0-5.2-3.862,5.771,5.771,0,0,0-5.727,6.073A5.949,5.949,0,0,0,161,140.952a6.038,6.038,0,0,0,5.061-2.664L164,136.9A3.472,3.472,0,0,1,161,138.581a3.081,3.081,0,0,1-2.948-1.838l8.124-3.356Zm-8.266,2a3.33,3.33,0,0,1,3.179-3.552,2.362,2.362,0,0,1,2.255,1.287Zm-6.606,5.887H153.7V122.705h-2.664Zm-4.368-10.415h-.089a4.2,4.2,0,0,0-3.2-1.358,6.082,6.082,0,0,0,0,12.146,4.147,4.147,0,0,0,3.2-1.385h.089v.888c0,2.326-1.243,3.552-3.241,3.552a3.374,3.374,0,0,1-3.063-2.166l-2.326.968a5.807,5.807,0,0,0,5.39,3.552c3.125,0,5.771-1.838,5.771-6.331V129.116h-2.531Zm-3.054,8.391a3.694,3.694,0,0,1,0-7.361,3.445,3.445,0,0,1,3.241,3.7,3.392,3.392,0,0,1-3.259,3.658Zm34.815-15.822h-6.4v17.847h2.664V133.8h3.72a5.549,5.549,0,1,0,0-11.09Zm.071,8.6h-3.809v-6.118h3.791a3.063,3.063,0,1,1,0,6.118Zm16.435-2.566a5,5,0,0,0-4.75,2.735l2.362.986a2.53,2.53,0,0,1,2.442-1.305,2.558,2.558,0,0,1,2.8,2.291v.186a5.886,5.886,0,0,0-2.779-.693c-2.548,0-5.141,1.4-5.141,4.022,0,2.388,2.087,3.933,4.44,3.933a3.765,3.765,0,0,0,3.4-1.776h.089V140.5h2.575v-6.846C200.365,130.51,197.994,128.743,194.931,128.743Zm-.32,9.767c-.888,0-2.087-.435-2.087-1.518,0-1.376,1.518-1.9,2.824-1.9a4.715,4.715,0,0,1,2.433.595,3.232,3.232,0,0,1-3.161,2.841Zm15.094-9.394-3.054,7.743h-.089l-3.143-7.743h-2.868l4.75,10.815-2.708,6.055h2.779l7.316-16.87Zm-23.973,11.418H188.4V122.688h-2.664Z" transform="translate(-35.2 -98.738)" fill="#fff"/>
    <path id="Path_1010" data-name="Path 1010" d="M42.346,106.756a2.78,2.78,0,0,0-.657,1.976v31.082a2.78,2.78,0,0,0,.657,1.977l.107.1,17.678-17.447v-.411L42.453,106.66Z" transform="translate(-27.765 -96.468)" fill="#5bc9f4"/>
    <path id="Path_1011" data-name="Path 1011" d="M68.347,132.125,62.46,126.2v-.417l5.9-5.9.133.071,6.979,3.969c2,1.137,2,2.983,0,4.12l-6.979,3.969Z" transform="translate(-30.431 -98.222)" fill="url(#linear-gradient)"/>
    <path id="Path_1012" data-name="Path 1012" d="M66.247,132.829,60.218,126.8,42.46,144.558a2.333,2.333,0,0,0,2.966.089L66.274,132.8" transform="translate(-27.852 -99.13)" fill="url(#linear-gradient-2)"/>
    <path id="Path_1013" data-name="Path 1013" d="M66.244,118.445,45.4,106.61c-1.225-.693-2.309-.6-2.966.089l17.758,17.758Z" transform="translate(-27.849 -96.547)" fill="url(#linear-gradient-3)"/>
    <path id="Path_1014" data-name="Path 1014" d="M98.6,107.675a3.019,3.019,0,0,0-2.016-.781,3.223,3.223,0,0,0,0,6.446,2.433,2.433,0,0,0,2.664-2.264h-2.4v-.986h3.685c0,2.948-1.572,4.342-3.969,4.342a4.315,4.315,0,0,1,0-8.622,4.138,4.138,0,0,1,2.832,1.11Z" transform="translate(-34.051 -96.479)" fill="#fff"/>
    <path id="Path_1015" data-name="Path 1015" d="M108.3,105.918v1.057h-3.845v2.664h3.356V110.7h-3.356v2.539h3.969V114.3h-5.1v-8.4Z" transform="translate(-35.357 -96.489)" fill="#fff"/>
    <path id="Path_1016" data-name="Path 1016" d="M116.422,105.92v1.074h-2.548v7.325h-1.145v-7.325H110.18V105.92Z" transform="translate(-36.191 -96.492)" fill="#fff"/>
    <path id="Path_1017" data-name="Path 1017" d="M123.2,105.92v8.4H122.06v-8.4Z" transform="translate(-37.605 -96.492)" fill="#fff"/>
    <path id="Path_1018" data-name="Path 1018" d="M131.26,105.92v1.074h-2.548v7.325h-1.145v-7.325H125V105.92Z" transform="translate(-37.984 -96.492)" fill="#fff"/>
    <path id="Path_1019" data-name="Path 1019" d="M140.524,105.81a4.315,4.315,0,1,1-4.244,4.315,4.262,4.262,0,0,1,4.244-4.315Zm0,7.521a3.214,3.214,0,1,0-3.108-3.205,3.125,3.125,0,0,0,3.108,3.205Z" transform="translate(-39.361 -96.479)" fill="#fff"/>
    <path id="Path_1020" data-name="Path 1020" d="M152.793,114.32l-3.827-6.331v6.331H147.83v-8.4h1.119l3.791,6.277V105.92h1.136v8.4Z" transform="translate(-40.745 -96.492)" fill="#fff"/>
  </g>
</svg>
